<svg width="31" height="33" viewBox="0 0 31 33" fill="none" xmlns="http://www.w3.org/2000/svg">
<path d="M3.98886 1.51141C3.98886 1.30403 3.98994 1.13656 4.00655 1.0069C4.02317 0.877231 4.05779 0.76139 4.14444 0.676542C4.23058 0.592194 4.34776 0.558549 4.47958 0.542254C4.61195 0.525891 4.78325 0.524675 4.9966 0.524675H4.99663C6.29702 0.524957 7.59745 0.525575 8.8979 0.526194C13.0595 0.528172 17.2213 0.530151 21.3824 0.521118L21.3827 0.521118C21.6235 0.521118 21.8361 0.554496 22.0333 0.633712C22.2307 0.713028 22.4063 0.83569 22.5768 1.00576L22.577 1.00599C23.8967 2.32943 25.2346 3.63638 26.5846 4.93041C26.7527 5.09127 26.8713 5.25989 26.9467 5.44878C27.0218 5.63718 27.0513 5.83925 27.0501 6.06352V6.06365C27.0423 7.22952 27.0425 8.39879 27.0426 9.56858C27.0429 10.9279 27.0431 12.2879 27.0308 13.6441C27.0289 13.8644 27.0568 13.9644 27.1021 14.0135C27.1418 14.0567 27.2275 14.0925 27.4524 14.0756C27.8438 14.0464 28.2412 14.0541 28.6312 14.0616C28.7848 14.0646 28.9373 14.0675 29.0878 14.0682C29.2929 14.0691 29.4612 14.0743 29.5957 14.0961C29.7306 14.118 29.8473 14.1588 29.9357 14.2432C30.025 14.3284 30.069 14.4422 30.0925 14.5744C30.1158 14.7054 30.1213 14.8691 30.1216 15.0678C30.1264 17.3773 30.1252 19.6866 30.124 21.997V21.9975L3.98886 1.51141ZM3.98886 1.51141C3.98565 4.27524 3.98136 7.03905 3.97707 9.80289C3.97503 11.118 3.97299 12.4332 3.97107 13.7484M3.98886 1.51141L3.97107 13.7484M3.97107 13.7484L3.90548 13.7162L3.97222 13.9786C3.9848 14.0281 3.98671 14.0574 3.9861 14.0728C3.9754 14.0736 3.95855 14.0734 3.93328 14.0707C3.90836 14.0681 3.88621 14.0645 3.86117 14.0606C3.84349 14.0578 3.82437 14.0547 3.8018 14.0516L3.79261 14.0503L3.78333 14.0504C3.6304 14.052 3.47758 14.0539 3.32481 14.0558C2.91636 14.0608 2.50833 14.0658 2.09997 14.0658H2.0997C1.83538 14.0664 1.62544 14.0683 1.46374 14.0882C1.30274 14.1079 1.16576 14.1477 1.06576 14.2433C0.964702 14.3399 0.922093 14.4734 0.901255 14.6298C0.880456 14.7858 0.878792 14.988 0.878792 15.2412V15.2547V15.2683V15.2818V15.2953V15.3089V15.3224V15.3359V15.3494V15.363V15.3765V15.39V15.4036V15.4171V15.4306V15.4442V15.4577V15.4712V15.4848V15.4983V15.5118V15.5254V15.5389V15.5524V15.566V15.5795V15.593V15.6066V15.6201V15.6336V15.6472V15.6607V15.6742V15.6878V15.7013V15.7148V15.7284V15.7419V15.7554V15.7689V15.7825V15.796V15.8095V15.8231V15.8366V15.8501V15.8637V15.8772V15.8907V15.9043V15.9178V15.9313V15.9449V15.9584V15.9719V15.9855V15.999V16.0125V16.0261V16.0396V16.0531V16.0667V16.0802V16.0937V16.1073V16.1208V16.1343V16.1479V16.1614V16.1749V16.1885V16.202V16.2155V16.2291V16.2426V16.2561V16.2697V16.2832V16.2967V16.3103V16.3238V16.3373V16.3509V16.3644V16.3779V16.3915V16.405V16.4185V16.4321V16.4456V16.4591V16.4727V16.4862V16.4997V16.5133V16.5268V16.5403V16.5539V16.5674V16.5809V16.5945V16.608V16.6216V16.6351V16.6486V16.6622V16.6757V16.6892V16.7028V16.7163V16.7298V16.7434V16.7569V16.7704V16.784V16.7975V16.811V16.8246V16.8381V16.8516V16.8652V16.8787V16.8922V16.9058V16.9193V16.9328V16.9464V16.9599V16.9734V16.987V17.0005V17.014V17.0276V17.0411V17.0546V17.0682V17.0817V17.0952V17.1088V17.1223V17.1359V17.1494V17.1629V17.1765V17.19V17.2035V17.2171V17.2306V17.2441V17.2577V17.2712V17.2847V17.2983V17.3118V17.3253V17.3389V17.3524V17.3659V17.3795V17.393V17.4065V17.4201V17.4336V17.4471V17.4607V17.4742V17.4878V17.5013V17.5148V17.5284V17.5419V17.5554V17.569V17.5825V17.596V17.6096V17.6231V17.6366V17.6502V17.6637V17.6772V17.6908V17.7043V17.7178V17.7314V17.7449V17.7584V17.772V17.7855V17.7991V17.8126V17.8261V17.8397V17.8532V17.8667V17.8803V17.8938V17.9073V17.9209V17.9344V17.9479V17.9615V17.975V17.9885V18.0021V18.0156V18.0292V18.0427V18.0562V18.0698V18.0833V18.0968V18.1104V18.1239V18.1374V18.151V18.1645V18.178V18.1916V18.2051V18.2186V18.2322V18.2457V18.2592V18.2728V18.2863V18.2999V18.3134V18.3269V18.3405V18.354V18.3675V18.3811V18.3946V18.4081V18.4217V18.4352V18.4487V18.4623V18.4758V18.4893V18.5029V18.5164V18.53V18.5435V18.557V18.5706V18.5841V18.5976V18.6112V18.6247V18.6382V18.6518V18.6653V18.6788V18.6924V18.7059V18.7194V18.733V18.7465V18.76V18.7736V18.7871V18.8007V18.8142V18.8277V18.8413V18.8548V18.8683V18.8819V18.8954V18.9089V18.9225V18.936V18.9495V18.9631V18.9766V18.9901V19.0037V19.0172V19.0308V19.0443V19.0578V19.0714V19.0849V19.0984V19.112V19.1255V19.139V19.1526V19.1661V19.1796V19.1932V19.2067V19.2202V19.2338V19.2473V19.2608V19.2744V19.2879V19.3015V19.315V19.3285V19.3421V19.3556V19.3691V19.3827V19.3962V19.4097V19.4233V19.4368V19.4503V19.4639V19.4774V19.4909V19.5045V19.518V19.5316V19.5451V19.5586V19.5722V19.5857V19.5992V19.6128V19.6263V19.6398V19.6534V19.6669V19.6804V19.694V19.7075V19.721V19.7346V19.7481V19.7616V19.7752V19.7887V19.8022V19.8158V19.8293V19.8429V19.8564V19.8699V19.8835V19.897V19.9105V19.9241V19.9376V19.9511V19.9647V19.9782V19.9917V20.0053V20.0188V20.0323V20.0459V20.0594V20.0729V20.0865V20.1V20.1135V20.1271V20.1406V20.1542V20.1677V20.1812V20.1948V20.2083V20.2218V20.2354V20.2489V20.2624V20.276V20.2895V20.303V20.3166V20.3301V20.3436V20.3572V20.3707V20.3842V20.3978V20.4113V20.4248V20.4384V20.4519V20.4654V20.479V20.4925V20.506V20.5196V20.5331V20.5466V20.5602V20.5737V20.5873V20.6008V20.6143V20.6279V20.6414V20.6549V20.6685V20.682V20.6955V20.7091V20.7226V20.7361V20.7497V20.7632V20.7767V20.7903V20.8038V20.8173V20.8309V20.8444V20.8579V20.8715V20.885V20.8985V20.9121V20.9256V20.9391V20.9527V20.9662V20.9797V20.9933V21.0068V21.0203V21.0339V21.0474V21.0609V21.0745V21.088V21.1015V21.1151V21.1286V21.1421V21.1557V21.1692V21.1827V21.1963V21.2098V21.2233V21.2369V21.2504V21.2639V21.2775V21.291V21.3045V21.3181V21.3316V21.3451V21.3587V21.3722V21.3857V21.3993V21.4128V21.4263V21.4399V21.4534V21.4669V21.4805V21.494V21.5075V21.5211V21.5346V21.5481V21.5617V21.5752V21.5887V21.6023V21.6158V21.6293V21.6429V21.6564V21.6699V21.6835V21.697V21.7105V21.7241V21.7376V21.7511V21.7647V21.7782V21.7917V21.8053V21.8188V21.8323V21.8459V21.8594V21.8729V21.8864V21.9V21.9135V21.927V21.9406V21.9541V21.9676V21.9812V21.9947V22.0082V22.0218V22.0353V22.0488V22.0624V22.0759V22.0894V22.103V22.1165V22.13V22.1436V22.1571V22.1706C0.878792 22.6449 0.880429 23.1185 0.882065 23.5919C0.885682 24.6387 0.889293 25.6838 0.875186 26.7297L0.875185 26.7298C0.871433 27.0224 0.924255 27.2641 1.08665 27.4238C1.24995 27.5843 1.49292 27.6316 1.79261 27.6137C1.79264 27.6137 1.79266 27.6137 1.79269 27.6137L1.78523 27.4889C2.14531 27.4676 2.50655 27.4729 2.86774 27.4782C3.02911 27.4806 3.19047 27.483 3.35172 27.483C3.85901 27.483 4.11346 27.741 4.11507 28.2571M3.97107 13.7484L30.1143 26.676C30.1137 26.8606 30.1095 27.0127 30.0894 27.1338C30.0691 27.2561 30.0301 27.3637 29.9465 27.4443C29.8636 27.5243 29.7538 27.5614 29.6289 27.581C29.5044 27.6006 29.3474 27.6053 29.1558 27.6068C29.0245 27.6078 28.8928 27.6094 28.7608 27.6109C28.2899 27.6165 27.8157 27.622 27.3437 27.6043C27.1777 27.5982 27.1163 27.6291 27.0891 27.6586C27.0585 27.6919 27.0344 27.7611 27.0368 27.921C27.0441 28.4067 27.0415 28.8927 27.0389 29.3773C27.0387 29.4158 27.0385 29.4542 27.0383 29.4927C27.0356 30.016 27.0338 30.5379 27.0452 31.0594C27.0514 31.3401 27.0099 31.5782 26.8576 31.7426C26.7038 31.9087 26.466 31.969 26.1591 31.9684C20.8433 31.9586 15.5269 31.9588 10.2107 31.959C8.43804 31.9591 6.66543 31.9592 4.89287 31.9589C4.71599 31.9589 4.56952 31.9548 4.45238 31.9351C4.33415 31.9152 4.22971 31.877 4.15111 31.796C4.07301 31.7156 4.03663 31.6096 4.01752 31.49C3.99851 31.3709 3.99429 31.2218 3.99369 31.0412L3.99369 31.0411C3.99248 30.5768 3.99218 30.1129 3.99188 29.649C3.99158 29.1852 3.99128 28.7215 3.99007 28.2575M4.11507 28.2571L3.99007 28.2575M4.11507 28.2571C4.11628 28.7213 4.11658 29.1851 4.11688 29.649C4.11718 30.1128 4.11748 30.5766 4.11869 31.0408L3.99007 28.2575M4.11507 28.2571L3.99007 28.2575C3.99007 28.2575 3.99007 28.2575 3.99007 28.2575M15.3981 14.0528H15.5231C16.1812 14.0528 16.8393 14.0527 17.4974 14.0527C20.1315 14.0525 22.7656 14.0523 25.3997 14.0551C25.4227 14.0551 25.4443 14.0553 25.4648 14.0554C25.5197 14.0558 25.5669 14.0562 25.6117 14.0534C25.6722 14.0496 25.7113 14.0407 25.7379 14.027C25.7721 14.0096 25.8267 13.964 25.8245 13.744C25.7967 11.3351 25.8064 8.92642 25.8185 6.51995C25.819 6.36544 25.7942 6.31043 25.7711 6.28752C25.7491 6.26574 25.6959 6.24122 25.5415 6.24815L25.5359 6.12327M15.3981 14.0528L21.3465 3.46887M15.3981 14.0528V14.054C14.6468 14.0539 13.8954 14.0534 13.1439 14.0528C10.6649 14.0511 8.1851 14.0494 5.70612 14.0646L5.70595 14.0646C5.58929 14.0655 5.49948 14.0614 5.42911 14.0488C5.35948 14.0364 5.31765 14.0171 5.29008 13.9942C5.23769 13.9505 5.19457 13.8561 5.19636 13.5977C5.2241 9.78802 5.2241 5.97954 5.19998 2.16992L5.19998 2.16979C5.1982 1.92794 5.23968 1.84081 5.2873 1.80079C5.31253 1.77959 5.3509 1.76148 5.41507 1.74939C5.47996 1.73717 5.56276 1.73259 5.67038 1.73258C10.6895 1.74562 15.7088 1.74918 20.727 1.72903M15.3981 14.0528L20.7266 1.60403M25.5359 6.12327L25.5418 6.24813C25.0365 6.27207 24.5299 6.26484 24.0276 6.25179L24.0275 6.25178C22.4877 6.21094 21.2543 4.98978 21.2215 3.47157M25.5359 6.12327C25.0354 6.14698 24.5325 6.13987 24.0309 6.12683L25.9435 6.52042C25.9447 6.20626 25.853 6.10905 25.5359 6.12327ZM21.2215 3.47157L21.3465 3.46887M21.2215 3.47157C21.2215 3.47164 21.2215 3.47171 21.2215 3.47178L21.3465 3.46887M21.2215 3.47157C21.2195 3.38413 21.2165 3.29551 21.2135 3.20606C21.2026 2.88039 21.1913 2.54389 21.2233 2.21436L21.2233 2.21415C21.2469 1.97516 21.212 1.87301 21.1587 1.82144C21.1002 1.76484 20.9808 1.72844 20.727 1.72903M21.3465 3.46887C21.3444 3.37848 21.3413 3.28787 21.3383 3.19716C21.3275 2.87267 21.3166 2.54701 21.3477 2.22643C21.3959 1.73799 21.2343 1.60284 20.7266 1.60403M20.727 1.72903C20.7271 1.72903 20.7271 1.72903 20.7271 1.72903L20.7266 1.60403M20.727 1.72903C20.727 1.72903 20.727 1.72903 20.7269 1.72903L20.7266 1.60403M15.4652 15.2713H15.4852L15.4888 15.2702C16.4842 15.2702 17.4798 15.2706 18.4755 15.2711C21.7691 15.2726 25.0634 15.274 28.3569 15.2595C28.6155 15.2589 28.7411 15.2882 28.8091 15.3476C28.8715 15.4022 28.9164 15.5121 28.9141 15.7795L28.9141 15.7796C28.8875 19.1556 28.8911 22.5302 28.9116 25.9058C28.9128 26.1458 28.883 26.2592 28.8275 26.3201C28.775 26.3779 28.6688 26.4202 28.4146 26.4202C19.7813 26.4048 11.1491 26.406 2.51707 26.4167H2.51686C2.31184 26.4173 2.22015 26.3892 2.17338 26.3463C2.13002 26.3066 2.09476 26.2248 2.09594 26.0196L2.09594 26.0194C2.11162 22.5645 2.11524 19.1105 2.09111 15.6564L2.09111 15.6564C2.08939 15.4166 2.14329 15.3459 2.19127 15.3155C2.22127 15.2965 2.26498 15.2825 2.33203 15.2744C2.39927 15.2664 2.479 15.2654 2.57724 15.2654C5.95237 15.2729 9.32828 15.2723 12.7036 15.2717C13.6242 15.2715 14.5447 15.2713 15.4652 15.2713ZM5.07739 27.9857C5.10151 28.774 5.11719 29.566 5.07378 30.3532C5.04845 30.8131 5.20281 30.8926 5.63935 30.889C8.11886 30.8738 10.5984 30.8755 13.0779 30.8772C13.8712 30.8778 14.6646 30.8783 15.458 30.8783C16.2107 30.8783 16.9635 30.878 17.7162 30.8777L5.07739 27.9857ZM25.6319 30.7501C25.5704 30.7594 25.4941 30.7619 25.3976 30.7616C22.8364 30.7507 20.2759 30.7517 17.7159 30.7527C16.9632 30.753 16.2106 30.7533 15.458 30.7533C14.6648 30.7533 13.8716 30.7528 13.0783 30.7522C10.5987 30.7505 8.11857 30.7487 5.63858 30.764L5.63834 30.764C5.53164 30.7649 5.44973 30.7605 5.38627 30.7486C5.32334 30.7368 5.28716 30.7192 5.26458 30.6999C5.22336 30.6647 5.18613 30.5862 5.19859 30.36C5.24232 29.5671 5.22647 28.7706 5.20234 27.9818L5.20233 27.9817C5.19685 27.8069 5.21683 27.7327 5.24839 27.6956C5.27586 27.6634 5.3409 27.6282 5.5318 27.6281C12.1778 27.64 18.8238 27.64 25.4697 27.6305H25.4699C25.652 27.6299 25.7282 27.6564 25.7642 27.6902C25.7967 27.7206 25.8268 27.7869 25.8209 27.965C25.7931 28.7749 25.7822 29.5897 25.8222 30.402L25.8222 30.4022C25.8332 30.6182 25.7904 30.682 25.7532 30.7091C25.73 30.726 25.6933 30.7408 25.6319 30.7501ZM24.7268 5.02855C24.0825 5.11673 23.4807 5.01045 23.0591 4.67286C22.6293 4.32872 22.3585 3.72057 22.447 2.75055C22.8982 3.20168 23.346 3.64904 23.7885 4.09101C24.1042 4.40646 24.4173 4.71918 24.7268 5.02855Z" fill="white" stroke="#91C9C1" stroke-width="0.25"/>
<path d="M7.7217 9.03387C7.7302 9.21619 7.79386 9.36423 7.9129 9.46769C8.02891 9.5685 8.18272 9.61404 8.34829 9.62461C8.45924 9.63207 8.57111 9.63112 8.67767 9.63021C8.71198 9.62992 8.74574 9.62964 8.77875 9.62964H8.7918H8.80486H8.81792H8.83098H8.84403H8.85709H8.87015H8.88321H8.89627H8.90932H8.92238H8.93544H8.9485H8.96156H8.97461H8.98767H9.00073H9.01379H9.02684H9.0399H9.05296H9.06602H9.07908H9.09213H9.10519H9.11825H9.13131H9.14437H9.15742H9.17048H9.18354H9.1966H9.20965H9.22271H9.23577H9.24883H9.26189H9.27494H9.288H9.30106H9.31412H9.32718H9.34023H9.35329H9.36635H9.37941H9.39246H9.40552H9.41858H9.43164H9.4447H9.45775H9.47081H9.48387H9.49693H9.50999H9.52304H9.5361H9.54916H9.56222H9.57528H9.58833H9.60139H9.61445H9.62751H9.64056H9.65362H9.66668H9.67974H9.6928H9.70585H9.71891H9.73197H9.74503H9.75809H9.77114H9.7842H9.79726H9.81032H9.82337H9.83643H9.84949H9.86255H9.87561H9.88866H9.90172H9.91478H9.92784H9.9409H9.95395H9.96701H9.98007H9.99313H10.0062H10.0192H10.0323H10.0454H10.0584H10.0715H10.0845H10.0976H10.1106H10.1237H10.1368H10.1498H10.1629H10.1759H10.189H10.2021H10.2151H10.2282H10.2412H10.2543H10.2673H10.2804H10.2935H10.3065H10.3196H10.3326H10.3457H10.3587H10.3718H10.3849H10.3979H10.411H10.424H10.4371H10.4502H10.4632H10.4763H10.4893H10.5024H10.5154H10.5285H10.5416H10.5546H10.5677H10.5807H10.5938H10.6068H10.6199H10.633H10.646H10.6591H10.6721H10.6852H10.6983H10.7113H10.7244H10.7374H10.7505H10.7635H10.7766H10.7897H10.8027H10.8158H10.8288H10.8419H10.8549H10.868H10.8811H10.8941H10.9072H10.9202H10.9333H10.9464H10.9594H10.9725H10.9855H10.9986H11.0116H11.0247H11.0378H11.0508H11.0639H11.0769H11.09H11.103H11.1161H11.1292H11.1422H11.1553H11.1683H11.1814H11.1945H11.2075H11.2206H11.2336H11.2467H11.2597H11.2728H11.2859H11.2989H11.312H11.325H11.3381H11.3511H11.3642H11.3773H11.3903H11.4034H11.4164H11.4295H11.4426H11.4556H11.4687H11.4817H11.4948H11.5078H11.5209H11.534H11.547H11.5601H11.5731H11.5862H11.5992H11.6123H11.6254H11.6384H11.6515H11.6645H11.6776H11.6906H11.7037H11.7168H11.7298H11.7429H11.7559H11.769H11.7821H11.7951H11.8082H11.8212H11.8343H11.8473H11.8604H11.8735H11.8865H11.8996H11.9126H11.9257H11.9387H11.9518H11.9649H11.9779H11.991H12.004H12.0171H12.0302H12.0432H12.0563H12.0693H12.0824H12.0954H12.1085H12.1216H12.1346H12.1477H12.1607H12.1738H12.1868H12.1999H12.213H12.226H12.2391H12.2521H12.2652H12.2783H12.2913H12.3044H12.3174H12.3305H12.3435H12.3566H12.3697H12.3827H12.3958H12.4088H12.4219H12.4349H12.448H12.4611H12.4741H12.4872H12.5002H12.5133H12.5264H12.5394H12.5525H12.5655H12.5786H12.5916H12.6047H12.6178H12.6308H12.6439H12.6569H12.67H12.683H12.6961H12.7092H12.7222H12.7353H12.7483H12.7614H12.7745H12.7875H12.8006H12.8136H12.8267H12.8397H12.8528H12.8659H12.8789H12.892H12.905H12.9181H12.9311H12.9442H12.9573H12.9703H12.9834H12.9964H13.0095H13.0226H13.0356H13.0487H13.0617H13.0748H13.0878H13.1009H13.114H13.127H13.1401H13.1531H13.1662H13.1792H13.1923H13.2054H13.2184H13.2315H13.2445H13.2576H13.2707H13.2837H13.2968H13.3098H13.3229H13.3359H13.349H13.3621H13.3751H13.3882H13.4012H13.4143H13.4273H13.4404H13.4535H13.4665H13.4796H13.4926H13.5057H13.5188H13.5318H13.5449H13.5579H13.571H13.584H13.5971H13.6102H13.6232H13.6363H13.6493H13.6624H13.6754H13.6885H13.7016H13.7146H13.7277H13.7407H13.7538H13.7669H13.7799H13.793H13.806H13.8191H13.8321H13.8452H13.8583H13.8713H13.8844H13.8974H13.9105H13.9235H13.9366H13.9497H13.9627H13.9758H13.9888H14.0019H14.015H14.028H14.0411H14.0541H14.0672H14.0802H14.0933H14.1064H14.1194H14.1325H14.1455H14.1586H14.1716H14.1847H14.1978H14.2108H14.2239H14.2369H14.25H14.2631H14.2761H14.2892H14.3022H14.3153H14.3283H14.3414H14.3545H14.3675H14.3806H14.3936H14.4067H14.4197H14.4328H14.4459H14.4589H14.472H14.485H14.4981H14.5111H14.5242H14.5373H14.5503H14.5634H14.5764H14.5895H14.6026H14.6156H14.6287H14.6417H14.6548H14.6678H14.6809H14.694H14.707H14.7201H14.7331H14.7462H14.7592H14.7723H14.7854H14.7984H14.8115H14.8245H14.8376H14.8507H14.8637H14.8768H14.8898H14.9029H14.9159H14.929H14.9421H14.9551H14.9682H14.9812H14.9943H15.0073H15.0204H15.0335H15.0465H15.0596H15.0726H15.0857H15.0988H15.1118H15.1249H15.1379H15.151H15.164H15.1771H15.1902H15.2032H15.2163H15.2293H15.2424H15.2554H15.2685H15.2816H15.2946H15.3077H15.3207H15.3338H15.3469H15.3599H15.373H15.386H15.3991H15.4121H15.4252H15.4383H15.4513H15.4644H15.5411L15.5423 9.62726H15.5446H15.5578H15.5709H15.5841H15.5973H15.6105H15.6236H15.6368H15.65H15.6631H15.6763H15.6895H15.7027H15.7158H15.729H15.7422H15.7553H15.7685H15.7817H15.7949H15.808H15.8212H15.8344H15.8475H15.8607H15.8739H15.8871H15.9002H15.9134H15.9266H15.9398H15.9529H15.9661H15.9793H15.9924H16.0056H16.0188H16.032H16.0451H16.0583H16.0715H16.0846H16.0978H16.111H16.1242H16.1373H16.1505H16.1637H16.1768H16.19H16.2032H16.2164H16.2295H16.2427H16.2559H16.2691H16.2822H16.2954H16.3086H16.3217H16.3349H16.3481H16.3613H16.3744H16.3876H16.4008H16.414H16.4271H16.4403H16.4535H16.4666H16.4798H16.493H16.5062H16.5193H16.5325H16.5457H16.5589H16.572H16.5852H16.5984H16.6115H16.6247H16.6379H16.6511H16.6642H16.6774H16.6906H16.7038H16.7169H16.7301H16.7433H16.7565H16.7696H16.7828H16.796H16.8091H16.8223H16.8355H16.8487H16.8618H16.875H16.8882H16.9014H16.9145H16.9277H16.9409H16.9541H16.9672H16.9804H16.9936H17.0068H17.0199H17.0331H17.0463H17.0594H17.0726H17.0858H17.099H17.1121H17.1253H17.1385H17.1517H17.1648H17.178H17.1912H17.2044H17.2175H17.2307H17.2439H17.2571H17.2702H17.2834H17.2966H17.3098H17.3229H17.3361H17.3493H17.3625H17.3756H17.3888H17.402H17.4151H17.4283H17.4415H17.4547H17.4678H17.481H17.4942H17.5074H17.5205H17.5337H17.5469H17.5601H17.5732H17.5864H17.5996H17.6128H17.6259H17.6391H17.6523H17.6655H17.6786H17.6918H17.705H17.7182H17.7313H17.7445H17.7577H17.7709H17.784H17.7972H17.8104H17.8236H17.8367H17.8499H17.8631H17.8763H17.8894H17.9026H17.9158H17.929H17.9421H17.9553H17.9685H17.9817H17.9948H18.008H18.0212H18.0344H18.0475H18.0607H18.0739H18.0871H18.1002H18.1134H18.1266H18.1398H18.1529H18.1661H18.1793H18.1925H18.2056H18.2188H18.232H18.2452H18.2583H18.2715H18.2847H18.2979H18.3111H18.3242H18.3374H18.3506H18.3638H18.3769H18.3901H18.4033H18.4165H18.4296H18.4428H18.456H18.4692H18.4823H18.4955H18.5087H18.5219H18.535H18.5482H18.5614H18.5746H18.5877H18.6009H18.6141H18.6273H18.6404H18.6536H18.6668H18.68H18.6932H18.7063H18.7195H18.7327H18.7459H18.759H18.7722H18.7854H18.7986H18.8117H18.8249H18.8381H18.8513H18.8644H18.8776H18.8908H18.904H18.9171H18.9303H18.9435H18.9567H18.9699H18.983H18.9962H19.0094H19.0226H19.0357H19.0489H19.0621H19.0753H19.0884H19.1016H19.1148H19.128H19.1411H19.1543H19.1675H19.1807H19.1939H19.207H19.2202H19.2334H19.2466H19.2597H19.2729H19.2861H19.2993H19.3124H19.3256H19.3388H19.352H19.3651H19.3783H19.3915H19.4047H19.4179H19.431H19.4442H19.4574H19.4706H19.4837H19.4969H19.5101H19.5233H19.5364H19.5496H19.5628H19.576H19.5892H19.6023H19.6155H19.6287H19.6419H19.655H19.6682H19.6814H19.6946H19.7077H19.7209H19.7341H19.7473H19.7605H19.7736H19.7868H19.8H19.8132H19.8263H19.8395H19.8527H19.8659H19.879H19.8922H19.9054H19.9186H19.9318H19.9449H19.9581H19.9713H19.9845H19.9976H20.0108H20.024H20.0372H20.0504H20.0635H20.0767H20.0899H20.1031H20.1162H20.1294H20.1426H20.1558H20.1689H20.1821H20.1953H20.2085H20.2217H20.2348H20.248H20.2612H20.2744H20.2875H20.3007H20.3139H20.3271H20.3403H20.3534H20.3666H20.3798H20.393H20.4061H20.4193H20.4325H20.4457H20.4589H20.472H20.4852H20.4984H20.5116H20.5247H20.5379H20.5511H20.5643H20.5775H20.5906H20.6038H20.617H20.6302H20.6433H20.6565H20.6697H20.6829H20.696H20.7092H20.7224H20.7356H20.7488H20.7619H20.7751H20.7883H20.8015H20.8146H20.8278H20.841H20.8542H20.8674H20.8805H20.8937H20.9069H20.9201H20.9332H20.9464H20.9596H20.9728H20.986H20.9991H21.0123H21.0255H21.0387H21.0518H21.065H21.0782H21.0914H21.1046H21.1177H21.1309H21.1441H21.1573H21.1704H21.1836H21.1968H21.21H21.2232H21.2363H21.2495H21.2627H21.2759H21.289H21.3022H21.3154H21.3286H21.3418H21.3549H21.3681H21.3813H21.3945H21.4076H21.4208H21.434H21.4472H21.4604H21.4735H21.4867H21.4999H21.5131H21.5262H21.5394H21.5526H21.5658H21.579H21.5921H21.6053H21.6185H21.6317H21.6449H21.658H21.6712H21.6844H21.6976H21.7107H21.7239H21.7371H21.7503H21.7635H21.7766H21.7898H21.803H21.8162H21.8293H21.8425H21.8557H21.8689H21.8821H21.8952H21.9084H21.9216H21.9348H21.9479H21.9611H21.9743H21.9875H22.0007H22.0138H22.027H22.0402H22.0534H22.0665H22.0797H22.0929H22.1061H22.1193H22.1324H22.1456H22.1588H22.172H22.1851H22.1983H22.2115C22.228 9.62726 22.2447 9.62729 22.2614 9.62731C22.4248 9.62753 22.5976 9.62776 22.7678 9.60741C22.9155 9.58992 23.0443 9.53425 23.1395 9.43712C23.2349 9.33972 23.2869 9.21052 23.2984 9.06393C23.3114 8.89934 23.2717 8.75267 23.1796 8.63768C23.0884 8.5238 22.9553 8.45278 22.8022 8.41979L22.8018 8.41969C22.6489 8.38734 22.4851 8.38989 22.3395 8.39217C22.3036 8.39273 22.2689 8.39327 22.2356 8.39327H22.2093H22.1829H22.1566H22.1302H22.1038H22.0775H22.0511H22.0248H21.9984H21.9721H21.9457H21.9194H21.893H21.8666H21.8403H21.8139H21.7876H21.7612H21.7349H21.7085H21.6822H21.6558H21.6294H21.6031H21.5767H21.5504H21.524H21.4977H21.4713H21.445H21.4186H21.3922H21.3659H21.3395H21.3132H21.2868H21.2605H21.2341H21.2078H21.1814H21.155H21.1287H21.1023H21.076H21.0496H21.0233H20.9969H20.9706H20.9442H20.9179H20.8915H20.8651H20.8388H20.8124H20.7861H20.7597H20.7334H20.707H20.6807H20.6543H20.628H20.6016H20.5752H20.5489H20.5225H20.4962H20.4698H20.4435H20.4171H20.3908H20.3644H20.3381H20.3117H20.2853H20.259H20.2326H20.2063H20.1799H20.1536H20.1272H20.1009H20.0745H20.0482H20.0218H19.9955H19.9691H19.9427H19.9164H19.89H19.8637H19.8373H19.811H19.7846H19.7583H19.7319H19.7056H19.6792H19.6529H19.6265H19.6001H19.5738H19.5474H19.5211H19.4947H19.4684H19.442H19.4157H19.3893H19.363H19.3366H19.3103H19.2839H19.2575H19.2312H19.2048H19.1785H19.1521H19.1258H19.0994H19.0731H19.0467H19.0204H18.994H18.9677H18.9413H18.915H18.8886H18.8622H18.8359H18.8095H18.7832H18.7568H18.7305H18.7041H18.6778H18.6514H18.6251H18.5987H18.5724H18.546H18.5197H18.4933H18.4669H18.4406H18.4142H18.3879H18.3615H18.3352H18.3088H18.2825H18.2561H18.2298H18.2034H18.1771H18.1507H18.1244H18.098H18.0717H18.0453H18.0189H17.9926H17.9662H17.9399H17.9135H17.8872H17.8608H17.8345H17.8081H17.7818H17.7554H17.7291H17.7027H17.6764H17.65H17.6237H17.5973H17.5709H17.5446H17.5182H17.4919H17.4655H17.4392H17.4128H17.3865H17.3601H17.3338H17.3074H17.2811H17.2547H17.2284H17.202H17.1757H17.1493H17.123H17.0966H17.0702H17.0439H17.0175H16.9912H16.9648H16.9385H16.9121H16.8858H16.8594H16.8331H16.8067H16.7804H16.754H16.7277H16.7013H16.675H16.6486H16.6223H16.5959H16.5695H16.5432H16.5168H16.4905H16.4641H16.4378H16.4114H16.3851H16.3587H16.3324H16.306H16.2797H16.2533H16.227H16.2006H16.1743H16.1479H16.1216H16.0952H16.0688H16.0425H16.0161H15.9898H15.9634H15.9371H15.9107H15.8844H15.858H15.8317H15.8053H15.779H15.7526H15.7263H15.6999H15.6736H15.6472H15.6209H15.5945H15.5682H15.5418H15.5154H15.4891H15.4627H15.4364H15.41H15.3837H15.3573H15.331H15.3046H15.2783H15.2519H15.2256H15.1992H15.1729H15.1465H15.1202H15.0938H15.0675H15.0411H15.0148H14.9884H14.962H14.9357H14.9093H14.883H14.8566H14.8303H14.8039H14.7776H14.7512H14.7249H14.6985H14.6722H14.6458H14.6195H14.5931H14.5668H14.5404H14.5141H14.4877H14.4613H14.435H14.4086H14.3823H14.3559H14.3296H14.3032H14.2769H14.2505H14.2242H14.1978H14.1715H14.1451H14.1188H14.0924H14.0661H14.0397H14.0134H13.987H13.9606H13.9343H13.9079H13.8816H13.8552H13.8289H13.8025H13.7762H13.7498H13.7235H13.6971H13.6708H13.6444H13.6181H13.5917H13.5654H13.539H13.5127H13.4863H13.4599H13.4336H13.4072H13.3809H13.3545H13.3282H13.3018H13.2755H13.2491H13.2228H13.1964H13.1701H13.1437H13.1174H13.091H13.0647H13.0383H13.012H12.9856H12.9592H12.9329H12.9065H12.8802H12.8538H12.8275H12.8011H12.7748H12.7484H12.7221H12.6957H12.6694H12.643H12.6167H12.5903H12.5639H12.5376H12.5112H12.4849H12.4585H12.4322H12.4058H12.3795H12.3531H12.3268H12.3004H12.2741H12.2477H12.2214H12.195H12.1687H12.1423H12.1159H12.0896H12.0632H12.0369H12.0105H11.9842H11.9578H11.9315H11.9051H11.8788H11.8524H11.8261H11.7997H11.7733H11.747H11.7206H11.6943H11.6679H11.6416H11.6152H11.5889H11.5625H11.5362H11.5098H11.4835H11.4571H11.4308H11.4044H11.378H11.3517H11.3253H11.299H11.2726H11.2463H11.2199H11.1936H11.1672H11.1409H11.1145H11.0882H11.0618H11.0354H11.0091H10.9827H10.9564H10.93H10.9037H10.8773H10.851H10.8246H10.7983H10.7719H10.7455H10.7192H10.6928H10.6665H10.6401H10.6138H10.5874H10.5611H10.5347H10.5084H10.482H10.4557H10.4293H10.4029H10.3766H10.3502H10.3239H10.2975H10.2712H10.2448H10.2185H10.1921H10.1658H10.1394H10.113H10.0867H10.0603H10.034H10.0076H9.98127H9.95491H9.92856H9.9022H9.87585H9.8495H9.82314H9.79679H9.77043H9.74408H9.71772H9.69137H9.66501H9.63866H9.6123H9.58594H9.55959H9.53323H9.50688H9.48052H9.45417H9.42781H9.40146H9.3751H9.34875H9.32239H9.29604H9.26968H9.24333H9.21697H9.19061H9.16426H9.1379H9.11155H9.08519H9.05884H9.03248H9.00613H8.97977H8.95341H8.92706H8.9007H8.87435H8.84799H8.82163H8.79528H8.76892H8.74257C8.71122 8.39327 8.67806 8.39269 8.64367 8.39208C8.53705 8.39021 8.41864 8.38812 8.3058 8.40259L8.30559 8.40262C8.14559 8.42341 7.99324 8.47539 7.88232 8.58171C7.76733 8.69192 7.71251 8.84537 7.7217 9.03387ZM7.7217 9.03387L7.84657 9.02805M7.7217 9.03387C7.72171 9.03398 7.72171 9.03408 7.72172 9.03419L7.84657 9.02805M7.84657 9.02805C7.83089 8.70914 8.02987 8.56451 8.3217 8.52657L8.77875 9.50464C8.74343 9.50464 8.7082 9.50493 8.673 9.50523C8.56756 9.50612 8.46245 9.507 8.35667 9.49989C8.0576 9.48092 7.86104 9.33866 7.84657 9.02805Z" fill="white" stroke="#91C9C1" stroke-width="0.25"/>
<path d="M15.2178 12.187H15.2174H15.2041H15.1908H15.1775H15.1642H15.1509H15.1376H15.1243H15.111H15.0977H15.0844H15.0712H15.0579H15.0446H15.0313H15.018H15.0047H14.9914H14.9781H14.9648H14.9515H14.9382H14.9249H14.9116H14.8983H14.885H14.8717H14.8584H14.8451H14.8318H14.8185H14.8052H14.7919H14.7786H14.7653H14.752H14.7387H14.7254H14.7121H14.6988H14.6855H14.6722H14.6589H14.6456H14.6323H14.619H14.6057H14.5924H14.5791H14.5658H14.5525H14.5392H14.5259H14.5126H14.4993H14.486H14.4727H14.4594H14.4461H14.4328H14.4195H14.4062H14.3929H14.3796H14.3664H14.3531H14.3398H14.3265H14.3132H14.2999H14.2866H14.2733H14.26H14.2467H14.2334H14.2201H14.2068H14.1935H14.1802H14.1669H14.1536H14.1403H14.127H14.1137H14.1004H14.0871H14.0738H14.0605H14.0472H14.0339H14.0206H14.0073H13.994H13.9807H13.9674H13.9541H13.9408H13.9275H13.9142H13.9009H13.8876H13.8743H13.861H13.8477H13.8344H13.8211H13.8078H13.7945H13.7812H13.7679H13.7546H13.7413H13.728H13.7147H13.7014H13.6881H13.6748H13.6616H13.6483H13.635H13.6217H13.6084H13.5951H13.5818H13.5685H13.5552H13.5419H13.5286H13.5153H13.502H13.4887H13.4754H13.4621H13.4488H13.4355H13.4222H13.4089H13.3956H13.3823H13.369H13.3557H13.3424H13.3291H13.3158H13.3025H13.2892H13.2759H13.2626H13.2493H13.236H13.2227H13.2094H13.1961H13.1828H13.1695H13.1562H13.1429H13.1296H13.1163H13.103H13.0897H13.0764H13.0631H13.0498H13.0365H13.0232H13.0099H12.9966H12.9833H12.97H12.9568H12.9435H12.9302H12.9169H12.9036H12.8903H12.877H12.8637H12.8504H12.8371H12.8238H12.8105H12.7972H12.7839H12.7706H12.7573H12.744H12.7307H12.7174H12.7041H12.6908H12.6775H12.6642H12.6509H12.6376H12.6243H12.611H12.5977H12.5844H12.5711H12.5578H12.5445H12.5312H12.5179H12.5046H12.4913H12.478H12.4647H12.4514H12.4381H12.4248H12.4115H12.3982H12.3849H12.3716H12.3583H12.345H12.3317H12.3184H12.3051H12.2918H12.2785H12.2652H12.252H12.2387H12.2254H12.2121H12.1988H12.1855H12.1722H12.1589H12.1456H12.1323H12.119H12.1057H12.0924H12.0791H12.0658H12.0525H12.0392H12.0259H12.0126H11.9993H11.986H11.9727H11.9594H11.9461H11.9328H11.9195H11.9062H11.8929H11.8796H11.8663H11.853H11.8397H11.8264H11.8131H11.7998H11.7865H11.7732H11.7599H11.7466H11.7333H11.72H11.7067H11.6934H11.6801H11.6668H11.6535H11.6402H11.6269H11.6136H11.6003H11.587H11.5737H11.5604H11.5472H11.5339H11.5206H11.5073H11.494H11.4807H11.4674H11.4541H11.4408H11.4275H11.4142H11.4009H11.3876H11.3743H11.361H11.3477H11.3344H11.3211H11.3078H11.2945H11.2812H11.2679H11.2546H11.2413H11.228H11.2147H11.2014H11.1881H11.1748H11.1615H11.1482H11.1349H11.1216H11.1083H11.095H11.0817H11.0684H11.0551H11.0418H11.0285H11.0152H11.0019H10.9886H10.9753H10.962H10.9487H10.9354H10.9221H10.9088H10.8955H10.8822H10.8689H10.8556H10.8424H10.8291H10.8158H10.8025H10.7892H10.7759H10.7626H10.7493H10.736H10.7227H10.7094H10.6961H10.6828H10.6695H10.6562H10.6429H10.6296H10.6163H10.603H10.5897H10.5764H10.5631H10.5498H10.5365H10.5232H10.5099H10.4966H10.4833H10.47H10.4567H10.4434H10.4301H10.4168H10.4035H10.3902H10.3769H10.3636H10.3503H10.337H10.3237H10.3104H10.2971H10.2838H10.2705H10.2572H10.2439H10.2306H10.2173H10.204H10.1907H10.1774H10.1641H10.1508H10.1376H10.1243H10.111H10.0977H10.0844H10.0711H10.0578H10.0445H10.0312H10.0179H10.0046H9.99127H9.97797H9.96468H9.95138H9.93808H9.92478H9.91148H9.89819H9.88489H9.87159H9.85829H9.84499H9.8317H9.8184H9.8051H9.7918H9.7785H9.7652H9.75191H9.73861H9.72531H9.71201H9.69871H9.68542H9.67212H9.65882H9.64552H9.63222H9.61893H9.60563H9.59233H9.57903H9.56573H9.55243H9.53914H9.52584H9.51254H9.49924H9.48594H9.47265H9.45935H9.44605H9.43275H9.41945H9.40616H9.39286H9.37956H9.36626H9.35296H9.33966H9.32637H9.31307H9.29977H9.28647H9.27317H9.25988H9.24658H9.23328H9.21998H9.20668H9.19339H9.18009H9.16679H9.15349H9.14019H9.1269H9.1136H9.1003H9.087H9.0737H9.0604H9.04711H9.03381H9.02051H9.00721H8.99391H8.98062H8.96732H8.95402H8.94072H8.92742H8.91413H8.90083H8.88753H8.87423H8.86093H8.84763H8.83434H8.82104H8.80774H8.79444H8.78114H8.76785H8.75455H8.74125H8.72795H8.71465C8.67847 12.187 8.63999 12.1878 8.60003 12.1887C8.47807 12.1913 8.34219 12.1942 8.2148 12.1749C8.06611 12.1524 7.94076 12.0911 7.85222 11.9871C7.76421 11.8838 7.72325 11.7509 7.71903 11.6044L7.71901 11.6039C7.71553 11.4608 7.74627 11.3257 7.82441 11.2158C7.90364 11.1044 8.02275 11.0315 8.17159 10.9986L8.19852 11.1207L8.17134 10.9987C8.31824 10.966 8.4733 10.9671 8.61013 10.9681C8.63307 10.9683 8.65549 10.9684 8.67724 10.9684C13.2163 10.9672 17.7554 10.9672 22.2933 10.9684L15.2178 12.187ZM15.2178 12.187L15.2166 12.1882H15.5221H15.5354H15.5487H15.562H15.5753H15.5886H15.6019H15.6152H15.6285H15.6418H15.6551H15.6684H15.6817H15.695H15.7083H15.7216H15.7349H15.7481H15.7614H15.7747H15.788H15.8013H15.8146H15.8279H15.8412H15.8545H15.8678H15.8811H15.8944H15.9077H15.921H15.9343H15.9476H15.9609H15.9742H15.9875H16.0008H16.0141H16.0274H16.0407H16.054H16.0673H16.0806H16.0939H16.1072H16.1205H16.1338H16.1471H16.1604H16.1737H16.187H16.2003H16.2136H16.2269H16.2402H16.2535H16.2668H16.2801H16.2934H16.3067H16.32H16.3333H16.3466H16.3599H16.3732H16.3865H16.3998H16.4131H16.4264H16.4397H16.4529H16.4662H16.4795H16.4928H16.5061H16.5194H16.5327H16.546H16.5593H16.5726H16.5859H16.5992H16.6125H16.6258H16.6391H16.6524H16.6657H16.679H16.6923H16.7056H16.7189H16.7322H16.7455H16.7588H16.7721H16.7854H16.7987H16.812H16.8253H16.8386H16.8519H16.8652H16.8785H16.8918H16.9051H16.9184H16.9317H16.945H16.9583H16.9716H16.9849H16.9982H17.0115H17.0248H17.0381H17.0514H17.0647H17.078H17.0913H17.1046H17.1179H17.1312H17.1445H17.1577H17.171H17.1843H17.1976H17.2109H17.2242H17.2375H17.2508H17.2641H17.2774H17.2907H17.304H17.3173H17.3306H17.3439H17.3572H17.3705H17.3838H17.3971H17.4104H17.4237H17.437H17.4503H17.4636H17.4769H17.4902H17.5035H17.5168H17.5301H17.5434H17.5567H17.57H17.5833H17.5966H17.6099H17.6232H17.6365H17.6498H17.6631H17.6764H17.6897H17.703H17.7163H17.7296H17.7429H17.7562H17.7695H17.7828H17.7961H17.8094H17.8227H17.836H17.8492H17.8625H17.8758H17.8891H17.9024H17.9157H17.929H17.9423H17.9556H17.9689H17.9822H17.9955H18.0088H18.0221H18.0354H18.0487H18.062H18.0753H18.0886H18.1019H18.1152H18.1285H18.1418H18.1551H18.1684H18.1817H18.195H18.2083H18.2216H18.2349H18.2482H18.2615H18.2748H18.2881H18.3014H18.3147H18.328H18.3413H18.3546H18.3679H18.3812H18.3945H18.4078H18.4211H18.4344H18.4477H18.461H18.4743H18.4876H18.5009H18.5142H18.5275H18.5408H18.5541H18.5673H18.5806H18.5939H18.6072H18.6205H18.6338H18.6471H18.6604H18.6737H18.687H18.7003H18.7136H18.7269H18.7402H18.7535H18.7668H18.7801H18.7934H18.8067H18.82H18.8333H18.8466H18.8599H18.8732H18.8865H18.8998H18.9131H18.9264H18.9397H18.953H18.9663H18.9796H18.9929H19.0062H19.0195H19.0328H19.0461H19.0594H19.0727H19.086H19.0993H19.1126H19.1259H19.1392H19.1525H19.1658H19.1791H19.1924H19.2057H19.219H19.2323H19.2456H19.2589H19.2721H19.2854H19.2987H19.312H19.3253H19.3386H19.3519H19.3652H19.3785H19.3918H19.4051H19.4184H19.4317H19.445H19.4583H19.4716H19.4849H19.4982H19.5115H19.5248H19.5381H19.5514H19.5647H19.578H19.5913H19.6046H19.6179H19.6312H19.6445H19.6578H19.6711H19.6844H19.6977H19.711H19.7243H19.7376H19.7509H19.7642H19.7775H19.7908H19.8041H19.8174H19.8307H19.844H19.8573H19.8706H19.8839H19.8972H19.9105H19.9238H19.9371H19.9504H19.9636H19.9769H19.9902H20.0035H20.0168H20.0301H20.0434H20.0567H20.07H20.0833H20.0966H20.1099H20.1232H20.1365H20.1498H20.1631H20.1764H20.1897H20.203H20.2163H20.2296H20.2429H20.2562H20.2695H20.2828H20.2961H20.3094H20.3227H20.336H20.3493H20.3626H20.3759H20.3892H20.4025H20.4158H20.4291H20.4424H20.4557H20.469H20.4823H20.4956H20.5089H20.5222H20.5355H20.5488H20.5621H20.5754H20.5887H20.602H20.6153H20.6286H20.6419H20.6552H20.6685H20.6817H20.695H20.7083H20.7216H20.7349H20.7482H20.7615H20.7748H20.7881H20.8014H20.8147H20.828H20.8413H20.8546H20.8679H20.8812H20.8945H20.9078H20.9211H20.9344H20.9477H20.961H20.9743H20.9876H21.0009H21.0142H21.0275H21.0408H21.0541H21.0674H21.0807H21.094H21.1073H21.1206H21.1339H21.1472H21.1605H21.1738H21.1871H21.2004H21.2137H21.227H21.2403H21.2536H21.2669H21.2802H21.2935H21.3068H21.3201H21.3334H21.3467H21.36H21.3733H21.3865H21.3998H21.4131H21.4264H21.4397H21.453H21.4663H21.4796H21.4929H21.5062H21.5195H21.5328H21.5461H21.5594H21.5727H21.586H21.5993H21.6126H21.6259H21.6392H21.6525H21.6658H21.6791H21.6924H21.7057H21.719H21.7323H21.7456H21.7589H21.7722H21.7855H21.7988H21.8121H21.8254H21.8387H21.852H21.8653H21.8786H21.8919H21.9052H21.9185H21.9318H21.9451H21.9584H21.9717H21.985H21.9983H22.0116H22.0249H22.0382H22.0515H22.0648H22.078H22.0913H22.1046H22.1179H22.1312H22.1445H22.1578H22.1711H22.1844H22.1977H22.211H22.2243H22.2376H22.2509H22.2642H22.2775H22.2908H22.3041H22.3174L22.3307 12.1882L22.3316 12.1882C22.3645 12.1879 22.3997 12.1885 22.4366 12.1891C22.5614 12.1912 22.7049 12.1936 22.837 12.1652L22.837 12.1652C23.1067 12.1071 23.2787 11.9051 23.2983 11.6323L23.2984 11.632C23.3084 11.488 23.2784 11.3509 23.2023 11.2382C23.1257 11.1247 23.0087 11.0456 22.8626 11.008C22.6991 10.9651 22.5227 10.9666 22.3692 10.968C22.3432 10.9682 22.3179 10.9684 22.2934 10.9684L15.2178 12.187Z" fill="white" stroke="#91C9C1" stroke-width="0.25"/>
<path d="M7.72722 6.47591C7.73168 6.61063 7.76207 6.72311 7.82023 6.8135C7.87904 6.9049 7.96008 6.96413 8.04898 7.00176C8.21266 7.07104 8.41671 7.07098 8.58361 7.07092C8.58824 7.07092 8.59284 7.07092 8.5974 7.07092H8.61622H8.63504H8.65385H8.67267H8.69149H8.7103H8.72912H8.74794H8.76675H8.78557H8.80439H8.8232H8.84202H8.86084H8.87965H8.89847H8.91729H8.9361H8.95492H8.97374H8.99255H9.01137H9.03019H9.049H9.06782H9.08664H9.10545H9.12427H9.14309H9.1619H9.18072H9.19954H9.21835H9.23717H9.25599H9.2748H9.29362H9.31244H9.33125H9.35007H9.36889H9.3877H9.40652H9.42534H9.44415H9.46297H9.48179H9.5006H9.51942H9.53824H9.55705H9.57587H9.59469H9.6135H9.63232H9.65113H9.66995H9.68877H9.70758H9.7264H9.74522H9.76403H9.78285H9.80167H9.82048H9.8393H9.85812H9.87693H9.89575H9.91457H9.93338H9.9522H9.97102H9.98983H10.0087H10.0275H10.0463H10.0651H10.0839H10.1027H10.1216H10.1404H10.1592H10.178H10.1968H10.2156H10.2345H10.2533H10.2721H10.2909H10.3097H10.3285H10.3473H10.3662H10.385H10.4038H10.4226H10.4414H10.4602H10.4791H10.4979H10.5167H10.5355H10.5543H10.5731H10.592H10.6108H10.6296H10.6484H10.6672H10.686H10.7049H10.7237H10.7425H10.7613H10.7801H10.7989H10.8178H10.8366H10.8554H10.8742H10.893H10.9118H10.9307H10.9495H10.9683H10.9871H11.0059H11.0247H11.0436H11.0624H11.0812H11.1H11.1188H11.1376H11.1565H11.1753H11.1941H11.2129H11.2317H11.2505H11.2694H11.2882H11.307H11.3258H11.3446H11.3634H11.3823H11.4011H11.4199H11.4387H11.4575H11.4763H11.4952H11.514H11.5328H11.5516H11.5704H11.5892H11.6081H11.6269H11.6457H11.6645H11.6833H11.7021H11.721H11.7398H11.7586H11.7774H11.7962H11.815H11.8339H11.8527H11.8715H11.8903H11.9091H11.9279H11.9468H11.9656H11.9844H12.0032H12.022H12.0408H12.0597H12.0785H12.0973H12.1161H12.1349H12.1537H12.1726H12.1914H12.2102H12.229H12.2478H12.2666H12.2855H12.3043H12.3231H12.3419H12.3607H12.3795H12.3984H12.4172H12.436H12.4548H12.4736H12.4924H12.5113H12.5301H12.5489H12.5677H12.5865H12.6053H12.6242H12.643H12.6618H12.6806H12.6994H12.7182H12.7371H12.7559H12.7747H12.7935H12.8123H12.8311H12.85H12.8688H12.8876H12.9064H12.9252H12.944H12.9629H12.9817H13.0005H13.0193H13.0381H13.0569H13.0758H13.0946H13.1134H13.1322H13.151H13.1698H13.1887H13.2075H13.2263H13.2451H13.2639H13.2827H13.3016H13.3204H13.3392H13.358H13.3768H13.3956H13.4145H13.4333H13.4521H13.4709H13.4897H13.5085H13.5274H13.5462H13.565H13.5838H13.6026H13.6214H13.6403H13.6591H13.6779H13.6967H13.7155H13.7343H13.7532H13.772H13.7908H13.8096H13.8284H13.8472H13.8661H13.8849H13.9037H13.9225H13.9413H13.9601H13.979H13.9978H14.0166H14.0354H14.0542H14.073H14.0919H14.1107H14.1295H14.1483H14.1671H14.1859H14.2048H14.2236H14.2424H14.2612H14.28H14.2988H14.3177H14.3365H14.3553H14.3741H14.3929H14.4117H14.4306H14.4494H14.4682H14.487H14.5058H14.5246H14.5435H14.5623H14.5811H14.5999H14.6187H14.6375H14.6564H14.6752H14.694H14.7128H14.7316H14.7504H14.7693H14.7881H14.8069H14.8257H14.8445H14.8633H14.8822H14.901H14.9198H14.9386H14.9574H14.9762H14.9951H15.0139H15.0327H15.0515H15.0703H15.0891H15.108H15.1268H15.1456H15.1644H15.1832H15.202H15.2209H15.2397H15.2585H15.2773H15.2961H15.3149H15.3338H15.3526H15.3714H15.3902H15.409H15.4278H15.4467H15.4655H15.4843H15.5031H15.5219H15.5407H15.5596H15.5784H15.5972H15.616H15.6348H15.6536H15.6725H15.6913H15.7101H15.7289H15.7477H15.7665H15.7854H15.8042H15.823H15.8418H15.8606H15.8794H15.8983H15.9171H15.9359H15.9547H15.9735H15.9923H16.0112H16.03H16.0488H16.0676H16.0864H16.1052H16.1241H16.1429H16.1617H16.1805H16.1993H16.2181H16.2369H16.2558H16.2746H16.2934H16.3122H16.331H16.3498H16.3687H16.3875H16.4063H16.4251H16.4439H16.4627H16.4816H16.5004H16.5192H16.538H16.5568H16.5756H16.5945H16.6133H16.6321H16.6509H16.6697H16.6885H16.7074H16.7262H16.745H16.7638H16.7826H16.8014H16.8203H16.8391H16.8579H16.8767H16.8955H16.9143H16.9332H16.952H16.9708H16.9896H17.0084H17.0272H17.0461H17.0649H17.0837H17.1025H17.1213H17.1401H17.159H17.1778H17.1966H17.2154H17.2342H17.253H17.2719H17.2907H17.3095H17.3283H17.3471H17.3659H17.3848H17.4036H17.4224H17.4412H17.46H17.4788H17.4977H17.5165H17.5353H17.5541H17.5729H17.5917H17.6106H17.6294H17.6482H17.667H17.6858H17.7046H17.7235H17.7423H17.7611H17.7799H17.7987H17.8175H17.8364H17.8552H17.874H17.8928H17.9116H17.9304H17.9493H17.9681H17.9869H18.0057H18.0245H18.0433H18.0622H18.081H18.0998H18.1186H18.1374H18.1562H18.1751H18.1939H18.2127H18.2315L18.2465 7.07092C18.4226 7.07099 18.6377 7.07107 18.8065 6.99477C18.8988 6.95307 18.9808 6.88762 19.0372 6.78785C19.0926 6.68977 19.1177 6.56838 19.115 6.42316L19.115 6.42306C19.1123 6.28213 19.0822 6.16586 19.0221 6.07414C18.9609 5.98096 18.8761 5.9245 18.7851 5.89111C18.6965 5.85859 18.6004 5.8473 18.5106 5.84314C18.4462 5.84015 18.3782 5.84074 18.3153 5.84127C18.2918 5.84148 18.269 5.84167 18.2473 5.84167C16.9631 5.83883 15.6781 5.83902 14.3937 5.83921C14.0727 5.83925 13.7517 5.8393 13.4307 5.8393H13.4295H13.4201H13.4107H13.4013H13.3919H13.3825H13.3731H13.3637H13.3543H13.3449H13.3355H13.3261H13.3167H13.3073H13.2979H13.2885H13.2791H13.2696H13.2602H13.2508H13.2414H13.232H13.2226H13.2132H13.2038H13.1944H13.185H13.1756H13.1662H13.1568H13.1474H13.138H13.1286H13.1192H13.1098H13.1003H13.0909H13.0815H13.0721H13.0627H13.0533H13.0439H13.0345H13.0251H13.0157H13.0063H12.9969H12.9875H12.9781H12.9687H12.9593H12.9499H12.9404H12.931H12.9216H12.9122H12.9028H12.8934H12.884H12.8746H12.8652H12.8558H12.8464H12.837H12.8276H12.8182H12.8088H12.7994H12.7899H12.7805H12.7711H12.7617H12.7523H12.7429H12.7335H12.7241H12.7147H12.7053H12.6959H12.6865H12.6771H12.6677H12.6583H12.6489H12.6394H12.63H12.6206H12.6112H12.6018H12.5924H12.583H12.5736H12.5642H12.5548H12.5454H12.536H12.5266H12.5172H12.5077H12.4983H12.4889H12.4795H12.4701H12.4607H12.4513H12.4419H12.4325H12.4231H12.4137H12.4043H12.3949H12.3855H12.376H12.3666H12.3572H12.3478H12.3384H12.329H12.3196H12.3102H12.3008H12.2914H12.282H12.2726H12.2632H12.2538H12.2443H12.2349H12.2255H12.2161H12.2067H12.1973H12.1879H12.1785H12.1691H12.1597H12.1503H12.1409H12.1315H12.1221H12.1126H12.1032H12.0938H12.0844H12.075H12.0656H12.0562H12.0468H12.0374H12.028H12.0186H12.0092H11.9998H11.9903H11.9809H11.9715H11.9621H11.9527H11.9433H11.9339H11.9245H11.9151H11.9057H11.8963H11.8869H11.8774H11.868H11.8586H11.8492H11.8398H11.8304H11.821H11.8116H11.8022H11.7928H11.7834H11.774H11.7646H11.7551H11.7457H11.7363H11.7269H11.7175H11.7081H11.6987H11.6893H11.6799H11.6705H11.6611H11.6517H11.6423H11.6328H11.6234H11.614H11.6046H11.5952H11.5858H11.5764H11.567H11.5576H11.5482H11.5388H11.5294H11.5199H11.5105H11.5011H11.4917H11.4823H11.4729H11.4635H11.4541H11.4447H11.4353H11.4259H11.4165H11.407H11.3976H11.3882H11.3788H11.3694H11.36H11.3506H11.3412H11.3318H11.3224H11.313H11.3036H11.2941H11.2847H11.2753H11.2659H11.2565H11.2471H11.2377H11.2283H11.2189H11.2095H11.2001H11.1907H11.1812H11.1718H11.1624H11.153H11.1436H11.1342H11.1248H11.1154H11.106H11.0966H11.0872H11.0778H11.0683H11.0589H11.0495H11.0401H11.0307H11.0213H11.0119H11.0025H10.9931H10.9837H10.9743H10.9649H10.9554H10.946H10.9366H10.9272H10.9178H10.9084H10.899H10.8896H10.8802H10.8708H10.8614H10.852H10.8425H10.8331H10.8237H10.8143H10.8049H10.7955H10.7861H10.7767H10.7673H10.7579H10.7485H10.7391H10.7297H10.7202H10.7108H10.7014H10.692H10.6826H10.6732H10.6638H10.6544H10.645H10.6356H10.6262H10.6168H10.6073H10.5979H10.5885H10.5791H10.5697H10.5603H10.5509H10.5415H10.5321H10.5227H10.5133H10.5039H10.4944H10.485H10.4756H10.4662H10.4568H10.4474H10.438H10.4286H10.4192H10.4098H10.4004H10.391H10.3815H10.3721H10.3627H10.3533H10.3439H10.3345H10.3251H10.3157H10.3063H10.2969H10.2875H10.2781H10.2687H10.2592H10.2498H10.2404H10.231H10.2216H10.2122H10.2028H10.1934H10.184H10.1746H10.1652H10.1558H10.1463H10.1369H10.1275H10.1181H10.1087H10.0993H10.0899H10.0805H10.0711H10.0617H10.0523H10.0429H10.0335H10.024H10.0146H10.0052H9.99582H9.98642H9.97701H9.9676H9.95819H9.94879H9.93938H9.92997H9.92056H9.91116H9.90175H9.89234H9.88293H9.87353H9.86412H9.85471H9.8453H9.8359H9.82649H9.81708H9.80767H9.79827H9.78886H9.77945H9.77004H9.76064H9.75123H9.74182H9.73242H9.72301H9.7136H9.70419H9.69479H9.68538H9.67597H9.66656H9.65716H9.64775H9.63834H9.62894H9.61953H9.61012H9.60071H9.59131H9.5819H9.57249H9.56309H9.55368H9.54427H9.53487H9.52546H9.51605H9.50664H9.49724H9.48783H9.47842H9.46902H9.45961H9.4502H9.4408H9.43139H9.42198H9.41258H9.40317H9.39376H9.38436H9.37495H9.36554H9.35614H9.34673H9.33732H9.32792H9.31851H9.3091H9.2997H9.29029H9.28088H9.27148H9.26207H9.25266H9.24326H9.23385H9.22445H9.21504H9.20563H9.19623H9.18682H9.17741H9.16801H9.1586H9.1492H9.13979H9.13038H9.12098H9.11157H9.10216H9.09276H9.08335H9.07395H9.06454H9.05513H9.04573H9.03632H9.02692H9.01751H9.00811H8.9987H8.98929H8.97989H8.97048H8.96108H8.95167H8.94227H8.93286H8.92345H8.91405H8.90464H8.89524H8.88583H8.87643H8.86702H8.85761H8.84821H8.8388H8.8294H8.81999H8.81059H8.80118H8.79178H8.78237H8.77297H8.76356H8.75416H8.74475H8.73535H8.72594H8.71654H8.70713H8.69773H8.68832H8.67892H8.66951H8.66011H8.6507H8.6413H8.63189H8.62249H8.61308C8.60036 5.8393 8.58742 5.83927 8.57431 5.83925C8.49426 5.83908 8.40799 5.83891 8.32566 5.8447C8.22969 5.85146 8.12904 5.86679 8.03794 5.90481C7.94432 5.94389 7.85995 6.00742 7.80252 6.10777C7.74619 6.2062 7.72218 6.32885 7.72722 6.47591ZM7.72722 6.47591C7.72722 6.47594 7.72722 6.47597 7.72722 6.47599L7.85215 6.47171L7.72721 6.47584C7.72721 6.47586 7.72722 6.47589 7.72722 6.47591Z" fill="white" stroke="#91C9C1" stroke-width="0.25"/>
<path d="M7.69127 20.5809H10.0431V19.5875H7.69127V20.5809ZM7.69127 22.7743H9.96796V21.8286H7.69127V22.7743ZM7 19.5875V25.1505H8.03691V19.5875H7Z" fill="white"/>
<path d="M11.2289 23.8869H14.009L13.8813 22.9889H11.3567L11.2289 23.8869ZM12.604 21.3915L13.3929 23.3226L13.3779 23.6087L14.0541 25.1505H15.2714L12.604 19.2617L9.93655 25.1505H11.1463L11.8375 23.5611L11.815 23.3068L12.604 21.3915Z" fill="white"/>
<path d="M16.4786 22.369C16.4786 21.9981 16.5562 21.6776 16.7115 21.4074C16.8718 21.1372 17.0797 20.9306 17.3351 20.7875C17.5906 20.6392 17.8686 20.565 18.1692 20.565C18.4196 20.565 18.6425 20.5995 18.8379 20.6683C19.0333 20.7372 19.2086 20.8299 19.3639 20.9465C19.5242 21.063 19.6619 21.1902 19.7771 21.3279V20.0485C19.5617 19.8683 19.3263 19.7279 19.0708 19.6273C18.8204 19.5266 18.5023 19.4763 18.1166 19.4763C17.7158 19.4763 17.3426 19.5452 16.997 19.6829C16.6564 19.8207 16.3583 20.0193 16.1029 20.2789C15.8524 20.5385 15.657 20.8458 15.5168 21.2008C15.3815 21.5505 15.3139 21.9399 15.3139 22.369C15.3139 22.7981 15.3815 23.1902 15.5168 23.5452C15.657 23.8948 15.8524 24.1995 16.1029 24.4591C16.3583 24.7187 16.6564 24.9173 16.997 25.0551C17.3426 25.1928 17.7158 25.2617 18.1166 25.2617C18.5023 25.2617 18.8204 25.2114 19.0708 25.1107C19.3263 25.0101 19.5617 24.8697 19.7771 24.6895V23.4101C19.6619 23.5478 19.5242 23.675 19.3639 23.7915C19.2086 23.9081 19.0333 24.0008 18.8379 24.0697C18.6425 24.1385 18.4196 24.173 18.1692 24.173C17.8686 24.173 17.5906 24.1015 17.3351 23.9584C17.0797 23.8101 16.8718 23.6008 16.7115 23.3306C16.5562 23.0551 16.4786 22.7346 16.4786 22.369Z" fill="white"/>
<path d="M20.0928 20.6127H21.5054V25.1505H22.5799V20.6127H24V19.5875H20.0928V20.6127Z" fill="white"/>
</svg>
